# xmcd
#
# Track frame offsets:
#	150
#	15820
#	30022
#	42697
#	63982
#	78680
#	95435
#	104857
#	122292
#	131432
#
# Disc length: 2021 seconds
#
# Revision: 0
# Processed by: cddbd v1.5.2PL0 Copyright (c) Steve Scherf et al.
# Submitted via: EasyCDDAExtractor 10.2.0.1
#
DISCID=7507e30a
DTITLE=Stanley Pierce - Going On...Through The Blood
DYEAR=2000
DGENRE=Gospel
TTITLE0=Through The Blood
TTITLE1=Jesus Saves
TTITLE2=Trust The Name Of Jesus
TTITLE3=The Cross Made The Difference
TTITLE4=He Loves Me
TTITLE5=Redemption Draweth Nigh
TTITLE6=He'll Take Me Through
TTITLE7=I'm Not Giving Up
TTITLE8=I Stand Upon The Rock
TTITLE9=Who Am I
EXTD=
EXTT0=
EXTT1=
EXTT2=
EXTT3=
EXTT4=
EXTT5=
EXTT6=
EXTT7=
EXTT8=
EXTT9=
PLAYORDER=
